M48
; DRILL file {KiCad 5.1.5-52549c5~84~ubuntu18.04.1} date jue 05 mar 2020 11:31:37 -03
; FORMAT={-:-/ absolute / metric / decimal}
; #@! TF.CreationDate,2020-03-05T11:31:37-03:00
; #@! TF.GenerationSoftware,Kicad,Pcbnew,5.1.5-52549c5~84~ubuntu18.04.1
; #@! TF.FileFunction,Plated,1,2,PTH
FMAT,2
METRIC
T1C0.400
T2C0.800
T3C0.800
T4C0.900
T5C1.000
T6C1.016
T7C1.100
T8C3.000
%
G90
G05
T1
X10.852Y36.782
X11.216Y47.196
X12.353Y56.308
X12.63Y51.546
X15.297Y61.42
X31.426Y60.15
T2
X24.314Y37.036
X24.314Y26.876
X71.522Y36.782
X71.522Y26.622
X28.124Y72.088
X28.124Y61.928
X14.916Y36.528
X14.916Y26.368
X21.012Y72.088
X21.012Y61.928
X62.414Y36.782
X62.414Y26.622
X63.43Y72.088
X63.43Y61.928
X56.826Y72.088
X56.826Y61.928
X45.65Y71.834
X45.65Y61.674
X52.762Y36.782
X52.762Y26.622
X43.219Y36.782
X43.219Y26.622
X80.956Y36.782
X80.956Y26.622
X33.785Y37.036
X33.785Y26.876
X39.3Y71.834
X39.3Y61.674
T3
X51.238Y69.802
X51.238Y64.722
X67.748Y69.802
X67.748Y64.722
X32.95Y70.056
X32.95Y64.976
T4
X52.653Y20.028
X52.653Y17.488
X71.522Y20.028
X71.522Y17.488
X80.956Y20.028
X80.956Y17.488
X43.219Y20.028
X43.219Y17.488
X62.414Y20.028
X62.414Y17.488
X24.35Y20.028
X24.35Y17.488
X14.916Y20.028
X14.916Y17.488
X33.785Y20.028
X33.785Y17.488
T5
X6.026Y45.672
X6.026Y43.132
X6.026Y40.592
X6.026Y38.052
X11.36Y66.5
X11.36Y63.96
X11.36Y61.42
X6.026Y29.67
X6.026Y27.13
X6.026Y24.59
X6.026Y22.05
T6
X18.726Y55.578
X18.726Y53.038
X21.266Y55.578
X21.266Y53.038
X23.806Y55.578
X23.806Y53.038
X26.346Y55.578
X26.346Y53.038
X28.886Y55.578
X28.886Y53.038
X31.426Y55.578
X31.426Y53.038
X33.966Y55.578
X33.966Y53.038
X36.506Y55.578
X36.506Y53.038
X39.046Y55.578
X39.046Y53.038
X41.586Y55.578
X41.586Y53.038
X44.126Y55.578
X44.126Y53.038
X46.666Y55.578
X46.666Y53.038
X49.206Y55.578
X49.206Y53.038
X51.746Y55.578
X51.746Y53.038
X54.286Y55.578
X54.286Y53.038
X56.826Y55.578
X56.826Y53.038
X59.366Y55.578
X59.366Y53.038
X61.906Y55.578
X61.906Y53.038
X64.446Y55.578
X64.446Y53.038
X66.986Y55.578
X66.986Y53.038
T7
X41.15Y82.502
X41.15Y76.002
X45.65Y82.502
X45.65Y76.002
X57.66Y82.756
X57.66Y76.256
X62.16Y82.756
X62.16Y76.256
X22.862Y82.756
X22.862Y76.256
X27.362Y82.756
X27.362Y76.256
T8
X13.9Y5.286
X71.812Y54.308
X71.812Y5.286
T0
M30
